<svg id="all_apps_memu" data-name="all apps memu" xmlns="http://www.w3.org/2000/svg" width="24" height="24" viewBox="0 0 24 24">
  <rect id="Rectangle_30" data-name="Rectangle 30" width="24" height="24" fill="none"/>
  <g id="Group_17" data-name="Group 17" transform="translate(-43 9520)">
    <path id="Path_51" data-name="Path 51" d="M1600.875,2544.494c2.247-1.33,3.274-2.62,2.871-4.438s-1.52-3.3-3.548-3.2-4.606.847-4.348,3.592S1598.629,2545.824,1600.875,2544.494Z" transform="translate(-1549.832 -12053.851)" fill="#6569fb"/>
    <path id="Path_52" data-name="Path 52" d="M1598.915,2537.2c-2.226,1.547-3.414,2.6-2.995,4.406a3.7,3.7,0,0,0,3.7,3.18c2.16.074,3.4-.386,4.117-3.18S1601.141,2535.655,1598.915,2537.2Z" transform="translate(-1539.837 -12053.794)" fill="#12c188"/>
    <path id="Path_53" data-name="Path 53" d="M1601.057,2541.53c2.407,1.084,3.324,2.765,2.576,4.511s-1.352,3.263-3.593,3.248-3.849-.906-4.134-3.493S1598.65,2540.445,1601.057,2541.53Z" transform="translate(-1549.887 -12048.294)" fill="#feb927"/>
    <path id="Path_54" data-name="Path 54" d="M1602.582,2537.708c2.9-.363,3.546,2.607,3.187,4.846s-2.574,3.226-4.772,3.115-3.494-3.074-3.051-4.81S1599.679,2538.07,1602.582,2537.708Z" transform="translate(-1541.859 -12044.678)" fill="#e90c5a"/>
  </g>
</svg>
