<svg id="Menu_icon_01" data-name="Menu icon/01" xmlns="http://www.w3.org/2000/svg" width="20" height="20.001" viewBox="0 0 20 20.001">
  <g id="module-three-1">
    <path id="Combined_Shape" data-name="Combined Shape" d="M14.854,19.982l-.039-.011a.649.649,0,0,1-.087-.034.34.34,0,0,1-.04-.019l-4.373-2.5A.63.63,0,0,1,10,16.875V12.5a.6.6,0,0,1,.019-.149s0-.012.005-.019a.167.167,0,0,0,.005-.018.788.788,0,0,1,.043-.105c.007-.013.014-.026.022-.037a.592.592,0,0,1,.087-.113.1.1,0,0,1,.014-.013.5.5,0,0,1,.09-.07l.021-.014,4.383-2.5A.623.623,0,0,1,15,9.375a.607.607,0,0,1,.31.083l4.375,2.5a.135.135,0,0,1,.021.014l.008.005a.474.474,0,0,1,.091.071l.007.006.005.005a.627.627,0,0,1,.088.113c.005.008.018.031.023.039a.648.648,0,0,1,.042.1c0,.007.011.035.013.041A.7.7,0,0,1,20,12.5v4.375a.625.625,0,0,1-.315.543l-4.375,2.5a.213.213,0,0,1-.04.018.675.675,0,0,1-.085.034l-.038.012a.579.579,0,0,1-.293,0Zm.771-4.618V18.3l3.125-1.786V13.577ZM11.25,16.513,14.375,18.3V15.364L11.25,13.577Zm.635-4.013L15,14.28l3.115-1.78L15,10.72ZM4.854,19.982l-.038-.011a.552.552,0,0,1-.087-.035.387.387,0,0,1-.043-.021l-4.37-2.5A.626.626,0,0,1,0,16.875V12.5a.6.6,0,0,1,.019-.149.167.167,0,0,1,.005-.018.167.167,0,0,0,.005-.018.671.671,0,0,1,.044-.106l.005-.01.014-.023a.662.662,0,0,1,.091-.118L.2,12.047a.467.467,0,0,1,.09-.07l.021-.014,4.383-2.5a.622.622,0,0,1,.62,0l3.125,1.786a.619.619,0,0,1,.293.378.625.625,0,0,1-.913.708L5,10.72,1.885,12.5,5,14.28l2.19-1.252a.633.633,0,0,1,.31-.081.625.625,0,0,1,.543.315.625.625,0,0,1-.232.852L5.625,15.363V18.3l2.19-1.252a.625.625,0,0,1,.62,1.086L5.31,19.918a.325.325,0,0,1-.04.019.675.675,0,0,1-.085.034l-.019.005-.019.006A.679.679,0,0,1,5,20,.608.608,0,0,1,4.854,19.982Zm-3.6-3.469L4.375,18.3V15.364L1.25,13.577Zm8.6-5.906-.04-.012a.5.5,0,0,1-.088-.035.183.183,0,0,1-.03-.014l-4.381-2.5A.625.625,0,0,1,5,7.5V3.125a.558.558,0,0,1,.019-.149.363.363,0,0,1,.013-.041.568.568,0,0,1,.042-.1s.006-.012.011-.02L5.093,2.8a.6.6,0,0,1,.194-.2l.026-.019L9.69.082a.625.625,0,0,1,.62,0l4.375,2.5.021.013.008.005a.606.606,0,0,1,.091.071l.013.011a.717.717,0,0,1,.089.114l.009.016.01.016a.734.734,0,0,1,.045.109l.008.03,0,.008A.639.639,0,0,1,15,3.125V7.5a.627.627,0,0,1-.315.543l-4.375,2.5a.325.325,0,0,1-.04.019.693.693,0,0,1-.087.034l-.016,0-.02.006a.608.608,0,0,1-.147.019A.586.586,0,0,1,9.854,10.607Zm.771-4.619V8.924L13.75,7.138V4.2ZM6.251,7.137,9.375,8.924V5.988L6.251,4.2Zm.635-4.012L10,4.905l3.115-1.78L10,1.345Z" transform="translate(0)" fill="#0dc188"/>
  </g>
</svg>
