<svg id="ic_app_icon" data-name="ic app icon" xmlns="http://www.w3.org/2000/svg" xmlns:xlink="http://www.w3.org/1999/xlink" width="32" height="32" viewBox="0 0 32 32">
  <defs>
    <linearGradient id="linear-gradient" x1="0.044" y1="0.039" x2="0.858" y2="0.842" gradientUnits="objectBoundingBox">
      <stop offset="0" stop-color="#f37592"/>
      <stop offset="1" stop-color="#e90c5a"/>
    </linearGradient>
    <clipPath id="clip-path">
      <rect id="Rectangle_15" data-name="Rectangle 15" width="16" height="16" fill="#fff"/>
    </clipPath>
  </defs>
  <path id="Path_47" data-name="Path 47" d="M1616.751,2537.8c11.612-1.451,14.182,10.427,12.747,19.384s-10.295,12.9-19.09,12.462-13.977-12.3-12.2-19.24S1605.139,2539.25,1616.751,2537.8Z" transform="translate(-1597.859 -2537.677)" fill="url(#linear-gradient)"/>
  <g id="ic_challeng_manager" data-name="ic challeng manager" transform="translate(8 8)">
    <g id="ic_challeng_manager-2" data-name="ic challeng manager" clip-path="url(#clip-path)">
      <g id="dashboard" transform="translate(0 0.469)">
        <path id="Path_9" data-name="Path 9" d="M0,15.386a.8.8,0,0,0,.8.8H15.2a.8.8,0,0,0,.8-.8V5.615H0Zm13.679-2.313a.469.469,0,0,1-.469.469h-.579a.469.469,0,0,1,0-.937h.579A.469.469,0,0,1,13.679,13.073Zm-1.9-2.722.5-.29a.469.469,0,1,1,.469.812l-.5.29a.469.469,0,0,1-.469-.812ZM9.91,8.828l.29-.5a.469.469,0,1,1,.812.469l-.29.5a.469.469,0,0,1-.812-.469ZM7.531,7.862a.469.469,0,0,1,.938,0v.579a.469.469,0,0,1-.937,0ZM8,11.8a1.264,1.264,0,0,1,.505.1l1.439-1.439a.469.469,0,1,1,.663.663L9.168,12.567A1.273,1.273,0,1,1,8,11.8ZM5.16,8.154a.469.469,0,0,1,.64.172l.29.5a.469.469,0,1,1-.812.469l-.29-.5A.469.469,0,0,1,5.16,8.154ZM3.081,10.233a.469.469,0,0,1,.64-.172l.5.29a.469.469,0,1,1-.469.812l-.5-.29A.469.469,0,0,1,3.081,10.233ZM2.789,12.6h.579a.469.469,0,0,1,0,.938H2.789a.469.469,0,0,1,0-.937Zm0,0" transform="translate(0 -1.123)" fill="#fff"/>
        <path id="Path_10" data-name="Path 10" d="M9.916,15.189a.336.336,0,1,0-.336-.336A.336.336,0,0,0,9.916,15.189Zm0,0" transform="translate(-1.916 -2.904)" fill="#fff"/>
        <path id="Path_11" data-name="Path 11" d="M16,.8a.8.8,0,0,0-.8-.8H.8A.8.8,0,0,0,0,.8V3.554H16ZM10.138,2.415a.638.638,0,1,1,.638-.638A.638.638,0,0,1,10.138,2.415Zm1.893,0a.638.638,0,1,1,.638-.638A.638.638,0,0,1,12.031,2.415Zm1.893,0a.638.638,0,1,1,.638-.638A.638.638,0,0,1,13.923,2.415Zm0,0" fill="#fff"/>
      </g>
    </g>
  </g>
</svg>
