<svg id="ic_app_icon" data-name="ic app icon" xmlns="http://www.w3.org/2000/svg" xmlns:xlink="http://www.w3.org/1999/xlink" width="32" height="32" viewBox="0 0 32 32">
  <defs>
    <linearGradient id="linear-gradient" y1="0.082" x2="0.849" y2="0.85" gradientUnits="objectBoundingBox">
      <stop offset="0" stop-color="#e06ab3"/>
      <stop offset="1" stop-color="#8131a9"/>
    </linearGradient>
    <clipPath id="clip-path">
      <rect id="Rectangle_17" data-name="Rectangle 17" width="16" height="16" fill="#fff"/>
    </clipPath>
  </defs>
  <path id="Path_50" data-name="Path 50" d="M1615.525,2538.424c8.9,6.187,13.657,10.405,11.978,17.624s-6.163,12.421-14.8,12.719-13.61-1.545-16.467-12.719S1606.621,2532.237,1615.525,2538.424Z" transform="translate(-1595.837 -2536.794)" fill="url(#linear-gradient)"/>
  <g id="ic_globe" data-name="ic globe" transform="translate(8 8)">
    <g id="ic_globe-2" data-name="ic globe" clip-path="url(#clip-path)">
      <g id="world-map" transform="translate(0 0)">
        <path id="Path_15" data-name="Path 15" d="M1.811,12.68A1.824,1.824,0,0,0,.24,15.408q.011.019.02.039l1.3,2.322a.209.209,0,0,0,.36.008L3.312,15.52l.053-.085.008-.013.006-.01A1.824,1.824,0,0,0,1.811,12.68Zm0,2.555a.734.734,0,1,1,.729-.733A.731.731,0,0,1,1.811,15.235Z" transform="translate(0 -2.536)" fill="#fff"/>
        <path id="Path_16" data-name="Path 16" d="M14.209,7.164H14.2a.531.531,0,0,1-.451-.272L11.815,3.436c-.006-.011-.012-.023-.018-.034a2.9,2.9,0,0,1-.277-2.089A11.521,11.521,0,0,0,10.2.891,4.1,4.1,0,0,1,9.53,3.3,4.777,4.777,0,0,1,7.521,5.019c-.163.076-.327.141-.486.2a2.578,2.578,0,0,0-.958.534,2.585,2.585,0,0,0-.33.522,3.925,3.925,0,0,1-.406.65,2.723,2.723,0,0,1-1.584.9,3.983,3.983,0,0,1-1.713.024,1.287,1.287,0,0,0-.99.025,1.382,1.382,0,0,1-.275.1l-.163.03Q.607,8.206.606,8.4A10.1,10.1,0,0,0,.694,9.535a2.841,2.841,0,0,1,1.238-.283,2.886,2.886,0,0,1,2.873,2.891,2.905,2.905,0,0,1-.373,1.423l-.017.03-.008.013-.023.037-.05.08-.577.934a7.068,7.068,0,0,0,.882.554l.279-.206a3.7,3.7,0,0,0,1.345-1.863,8.819,8.819,0,0,0,.065-2.177L6.321,10.8a4.931,4.931,0,0,1,.143-1.77A2.1,2.1,0,0,1,7.9,7.577a2.8,2.8,0,0,1,1.8.332c.106.046.207.09.305.129a8.318,8.318,0,0,0,3.708.318l.194-.016a9.028,9.028,0,0,1,2.158,0,9.234,9.234,0,0,0-.554-2.807l-.85,1.377a.531.531,0,0,1-.451.253Z" transform="translate(-0.121 -0.178)" fill="#fff"/>
        <path id="Path_17" data-name="Path 17" d="M2.324,6.749a2.966,2.966,0,0,0,1.261-.031,1.667,1.667,0,0,0,.972-.533,3.022,3.022,0,0,0,.291-.478,3.468,3.468,0,0,1,.485-.742,3.441,3.441,0,0,1,1.35-.8c.152-.06.3-.117.43-.18A3.3,3.3,0,0,0,9.166.75c0-.05-.006-.1-.006-.138A5.972,5.972,0,0,0,8.374.555,7.744,7.744,0,0,0,.8,6.78a2.4,2.4,0,0,1,1.524-.031Z" transform="translate(-0.16 -0.111)" fill="#fff"/>
        <path id="Path_18" data-name="Path 18" d="M18.847,2.742l.006-.01a1.811,1.811,0,1,0-3.139,0q.011.019.02.039l1.3,2.322a.209.209,0,0,0,.36.008L18.786,2.84l.053-.085Zm-1.563-.187a.734.734,0,1,1,.729-.734A.731.731,0,0,1,17.284,2.555Z" transform="translate(-3.095 0)" fill="#fff"/>
        <path id="Path_19" data-name="Path 19" d="M17.246,11.333a7.845,7.845,0,0,0-1.964,0l-.2.016a9.215,9.215,0,0,1-4.183-.39c-.113-.045-.226-.094-.335-.142a2,2,0,0,0-1.134-.274,1.058,1.058,0,0,0-.669.741,4.008,4.008,0,0,0-.093,1.39l.008.167A9.758,9.758,0,0,1,8.6,15.286a4.376,4.376,0,0,1-1.54,2.361,7.6,7.6,0,0,0,2.569.458,7.747,7.747,0,0,0,7.664-6.767Z" transform="translate(-1.411 -2.105)" fill="#fff"/>
      </g>
    </g>
  </g>
</svg>
