<svg id="ic_app_icon" data-name="ic app icon" xmlns="http://www.w3.org/2000/svg" xmlns:xlink="http://www.w3.org/1999/xlink" width="32" height="32.001" viewBox="0 0 32 32.001">
  <defs>
    <linearGradient id="linear-gradient" x1="0.024" x2="0.905" y2="0.871" gradientUnits="objectBoundingBox">
      <stop offset="0" stop-color="#49afef"/>
      <stop offset="1" stop-color="#616cd5"/>
    </linearGradient>
    <clipPath id="clip-path">
      <rect id="Rectangle_12" data-name="Rectangle 12" width="16" height="16" fill="#fff"/>
    </clipPath>
  </defs>
  <path id="Path_39" data-name="Path 39" d="M1616.005,2538.272c8.987,5.321,13.094,10.479,11.484,17.751s-6.081,13.206-14.193,12.808-18.424-3.389-17.393-14.369S1607.019,2532.951,1616.005,2538.272Z" transform="translate(-1595.832 -2536.849)" fill="url(#linear-gradient)"/>
  <g id="ic_taas" data-name="ic taas" transform="translate(8 8)">
    <g id="ic_taas-2" data-name="ic taas" clip-path="url(#clip-path)">
      <g id="forum">
        <path id="Path_2" data-name="Path 2" d="M14,0H3a.5.5,0,0,0-.5.5V6.167A1.832,1.832,0,0,0,4.333,8H6.007a3,3,0,0,1,4.987,0h1.673A1.832,1.832,0,0,0,14.5,6.167V.5A.5.5,0,0,0,14,0ZM11.5,4.167a.5.5,0,0,1-.853.353L10.123,4l-.95.871a.5.5,0,0,1-.587.067l-.835-.477-1.4,1.4a.5.5,0,0,1-.707-.707L7.313,3.479a.5.5,0,0,1,.6-.081l.849.485.651-.6L8.98,2.853A.5.5,0,0,1,9.333,2H11a.5.5,0,0,1,.5.5Z" transform="translate(-0.5)" fill="#fff"/>
        <circle id="Ellipse_2" data-name="Ellipse 2" cx="1.333" cy="1.333" r="1.333" transform="translate(1.333 8.667)" fill="#fff"/>
        <path id="Path_3" data-name="Path 3" d="M4.447,15.267A2.794,2.794,0,0,0,3.333,17.5v.167H.5a.5.5,0,0,1-.5-.5v-.333A1.832,1.832,0,0,1,1.833,15H3.5A1.821,1.821,0,0,1,4.447,15.267Z" transform="translate(0 -3)" fill="#fff"/>
        <circle id="Ellipse_3" data-name="Ellipse 3" cx="1.333" cy="1.333" r="1.333" transform="translate(12 8.667)" fill="#fff"/>
        <path id="Path_4" data-name="Path 4" d="M18.888,16.833v.333a.5.5,0,0,1-.5.5H15.555V17.5a2.794,2.794,0,0,0-1.113-2.233A1.821,1.821,0,0,1,15.388,15h1.667A1.832,1.832,0,0,1,18.888,16.833Z" transform="translate(-2.888 -3)" fill="#fff"/>
        <circle id="Ellipse_4" data-name="Ellipse 4" cx="2" cy="2" r="2" transform="translate(6 7.667)" fill="#fff"/>
        <path id="Path_5" data-name="Path 5" d="M10.917,15.833H7.25a1.835,1.835,0,0,0-1.833,1.833v1a.5.5,0,0,0,.5.5H12.25a.5.5,0,0,0,.5-.5v-1A1.835,1.835,0,0,0,10.917,15.833Z" transform="translate(-1.083 -3.167)" fill="#fff"/>
        <path id="Path_6" data-name="Path 6" d="M15,1H1.333a.5.5,0,1,1,0-1H15a.5.5,0,0,1,0,1Z" transform="translate(-0.167)" fill="#fff"/>
      </g>
    </g>
  </g>
</svg>
