<?xml version="1.0" encoding="UTF-8"?>
<svg width="21px" height="21px" viewBox="0 0 21 21" version="1.1" xmlns="http://www.w3.org/2000/svg" xmlns:xlink="http://www.w3.org/1999/xlink">
    <title>08E95137-2037-4B8F-91FD-731B926A951E</title>
    <g id="Screens" stroke="none" stroke-width="1" fill="none" fill-rule="evenodd">
        <g id="01_1_Create-New-Team" transform="translate(-20.000000, -167.000000)" fill="#9d9d9d">
            <g id="Side-Nav/TaaS-Copy" transform="translate(0.000000, 80.000000)">
                <g id="Menu-item/open/normal-Copy-7" transform="translate(0.000000, 85.000000)">
                    <g id="Menu-icon/1" transform="translate(20.000000, 2.000000)">
                        <path d="M14.5,8.75 C17.6707023,8.75 20.25,11.3292977 20.25,14.5 C20.25,17.6707023 17.6707023,20.25 14.5,20.25 C11.3292977,20.25 8.75,17.6707023 8.75,14.5 L8.75056619,14.4554315 C8.75018915,14.4286652 8.75,14.4018543 8.75,14.375 C8.75,11.2733333 11.2733333,8.75 14.375,8.75 L14.4370182,8.7503395 C14.4579857,8.75011336 14.4789799,8.75 14.5,8.75 Z M-9.61897229e-13,11.25 C0.000833333332,9.465 0.963333333,7.80333333 2.51166667,6.915 C3.00786052,6.62966115 3.54868668,6.43286703 4.10765098,6.33147774 L4.14545283,6.3456877 C2.83022762,5.93256729 1.875,4.70096532 1.875,3.25 L1.8759921,3.20433693 C1.87533201,3.17797011 1.875,3.15152315 1.875,3.125 C1.875,1.40166667 3.27666667,0 5,0 L5.06798607,0.000492257876 C5.08695203,0.000164534841 5.10595712,0 5.125,0 C6.91736893,0 8.375,1.45763107 8.375,3.25 C8.375,4.70170111 7.41880334,5.93381632 6.10301637,6.34973931 C7.54846872,6.63012379 8.8261392,7.52623018 9.57171008,8.82521452 C9.67144745,8.99875754 9.69770052,9.20116874 9.64569593,9.39418578 C9.5936472,9.58736664 9.46819843,9.74971211 9.29482691,9.84835293 C9.2446334,9.8772253 9.19128623,9.90017645 9.13276744,9.9171972 L9.04085832,9.93827937 L8.92166667,9.94833333 C8.65348191,9.94833333 8.40471763,9.80432645 8.27075132,9.57138494 C7.62655803,8.44887812 6.41893601,7.75166667 5.11916667,7.75166667 C4.48974965,7.75166667 3.86796042,7.91782199 3.3205852,8.23256272 C2.26083359,8.84117815 1.57963641,9.94942145 1.50654015,11.1610281 L1.5,11.3758333 L1.499,12.499 L2.5,12.5 L2.51,12.5 L2.625,12.5 C2.94153253,12.5 3.21411388,12.6944742 3.32355859,12.9758091 L3.35383457,13.0726568 L3.37104541,13.175053 L3.929,18.749 L6.31,18.75 L6.5225,16.6183333 C6.55416667,16.3025 6.82583333,16.055 7.14083333,16.055 C7.1625463,16.055 7.18498087,16.0564432 7.20746556,16.0586582 L7.26583333,16.055 L7.3497465,16.059768 C7.54473355,16.0789636 7.72403344,16.1760183 7.85002239,16.3307774 C7.95152689,16.4546608 8.00966692,16.6045589 8.0186334,16.7613446 L8.01604746,16.8799265 L7.74686682,19.5742322 C7.71147278,19.9245425 7.44288935,20.1964108 7.10370932,20.2429462 L7,20.25 L3.25,20.25 C2.89829718,20.25 2.6008551,20.0099085 2.52116543,19.6773432 L2.50395459,19.574947 L1.945,13.999 L0.75,14 C0.404970339,14 0.11415678,13.7666914 0.0268030838,13.4493179 L0.0068500147,13.3517332 L-8.66862138e-13,13.25 L-9.61897229e-13,11.25 Z M19.998,14.41 L20,14.375 C20,17.4556146 17.5108038,19.96572 14.4380756,19.9996519 C14.4578563,19.9998807 14.4789145,20 14.5,20 C17.5326311,20 20,17.5326311 20,14.5 L19.998,14.41 Z M14.5,10.25 C12.1565356,10.25 10.25,12.1565356 10.25,14.5 C10.25,16.8207123 12.1196952,18.7129387 14.4318687,18.7494622 L14.375,18.75 C16.7797655,18.75 18.7374117,16.8000635 18.7499395,14.3981897 L18.75,14.5 C18.75,12.1565356 16.8434644,10.25 14.5,10.25 Z M17,13.75 C17.3450297,13.75 17.6358432,13.9833086 17.7231969,14.3006821 L17.74315,14.3982668 L17.75,14.5 C17.75,14.8795326 17.4676966,15.1934638 17.1017332,15.24315 L17,15.25 L15.249,15.25 L15.25,17 C15.25,17.3450297 15.0166914,17.6358432 14.6993179,17.7231969 L14.6017332,17.74315 L14.5,17.75 C14.1204674,17.75 13.8065362,17.4676966 13.75685,17.1017332 L13.75,17 L13.7501177,16.887245 C13.7500394,16.8831727 13.75,16.8790909 13.75,16.875 L13.749,15.25 L12,15.25 C11.6549703,15.25 11.3641568,15.0166914 11.2768031,14.6993179 L11.25685,14.6017332 L11.25,14.5 L11.2531034,14.4376277 C11.2510509,14.4170288 11.25,14.3961364 11.25,14.375 C11.25,14.03 11.53,13.75 11.875,13.75 L13.75,13.75 L13.75,11.875 C13.75,11.53 14.03,11.25 14.375,11.25 L14.434,11.254 L14.5,11.25 C14.8795326,11.25 15.1934638,11.5323034 15.24315,11.8982668 L15.25,12 L15.249,13.75 L17,13.75 Z M14.375,10 C11.9625,10 10,11.9625 10,14.375 L10.001,14.446 L10.0049069,14.2884673 C10.1146427,11.9279204 12.0512072,10.0370413 14.4298928,10.0005376 C14.412459,10.0001185 14.3937431,10 14.375,10 Z M1.25,11.3757555 C1.25086116,9.99191679 1.99640479,8.70474501 3.19602444,8.01580338 C3.76324353,7.6896524 4.40518499,7.51274301 5.05708474,7.50217015 C5.03633684,7.50184423 5.01526345,7.50166667 4.99416667,7.50166667 C4.34333333,7.50166667 3.7,7.67333333 3.13333333,7.99916667 C1.9725,8.66583333 1.25083333,9.91166667 1.25,11.2508333 L1.25,11.3757555 Z M13.875,0 C15.4948689,0 16.8125,1.31763107 16.8125,2.9375 C16.8125,3.79190794 16.4427673,4.58379147 15.8259335,5.13222054 L15.6792566,5.25437706 L15.573,5.331 L15.8008397,5.43133717 C16.4670318,5.74378471 17.0418381,6.21355835 17.4825073,6.80592363 L17.641387,7.03373926 L17.7732128,7.24826339 C17.9802647,7.60635313 17.857342,8.0661518 17.500418,8.27252098 C17.3873103,8.33958488 17.257024,8.375 17.125,8.375 C16.8578605,8.375 16.6090176,8.23118103 16.4759059,7.9999869 C16.0751288,7.30562651 15.4284161,6.80975058 14.6534851,6.60240849 C14.397333,6.53378209 14.1348998,6.49916667 13.8725,6.49916667 C13.3522534,6.49916667 12.8346221,6.63906702 12.3777012,6.90313679 C12.0917682,7.06892986 11.8365354,7.27863575 11.6189649,7.52660211 C11.5279641,7.63033031 11.4113056,7.70618271 11.2763324,7.74800701 L11.1717832,7.77289883 L11.0541667,7.7825 C10.8734007,7.7825 10.698415,7.71674936 10.5610203,7.59740542 C10.374472,7.43417573 10.2880089,7.19866874 10.3069509,6.96912564 C10.2907462,6.80356019 10.3400417,6.63108594 10.4583333,6.49583333 C10.7758333,6.13333333 11.1475,5.8275 11.5641667,5.58666667 C11.7514804,5.47849298 11.9457018,5.38466087 12.1450379,5.30565093 L12.0720788,5.25462874 C11.4678301,4.78505567 11.0658682,4.09473038 10.9633536,3.3270957 L10.9440196,3.13365943 L10.9375,2.9375 L10.9381385,2.87288094 C10.9377136,2.85280434 10.9375,2.83267664 10.9375,2.8125 C10.9375,1.26166667 12.1991667,0 13.75,0 L13.8049669,0.000822408848 C13.8282461,0.00027515768 13.8515915,0 13.875,0 Z M13.7475,6.24916667 C13.205,6.24916667 12.6658333,6.395 12.19,6.67 C11.8925,6.8425 11.6266667,7.06083333 11.4,7.31916667 C11.3046667,7.42783333 11.1762667,7.49916667 11.0361333,7.52335333 L10.99,7.527 L11.0435168,7.5329545 L11.139873,7.52517461 C11.2525341,7.50572958 11.355036,7.44835963 11.4310407,7.36172492 C11.6665395,7.0933255 11.9428918,6.86626729 12.2524527,6.68677416 C12.7301105,6.41071973 13.2690441,6.25992545 13.8133407,6.24972139 C13.7915863,6.24940109 13.7695404,6.24916667 13.7475,6.24916667 Z M8.123,3.182 L8.125,3.125 C8.125,4.82529769 6.7605548,6.21247062 5.06893194,6.24925125 C5.08698797,6.24982199 5.10597357,6.25 5.125,6.25 C6.77929774,6.25 8.125,4.90429774 8.125,3.25 L8.123,3.182 Z M16.56,2.873 L16.5625,2.8125 C16.5625,3.84469953 16.0035902,4.74880019 15.1725087,5.23806402 L15.228,5.259 L15.2340934,5.25534447 C16.0501038,4.77495317 16.5625,3.8995328 16.5625,2.9375 L16.56,2.873 Z M5.125,1.5 C4.15986893,1.5 3.375,2.28486893 3.375,3.25 C3.375,4.19435395 4.1264397,4.96612349 5.06292528,4.9989148 L5,5 C6.01561508,5 6.8447709,4.18906297 6.87419201,3.18046438 L6.875,3.25 C6.875,2.28486893 6.09013107,1.5 5.125,1.5 Z M13.875,1.5 C13.0823689,1.5 12.4375,2.14486893 12.4375,2.9375 C12.4375,3.70933415 13.0489729,4.34105835 13.8129234,4.37367715 L13.75,4.375 C14.5887428,4.375 15.2750961,3.71096067 15.3110221,2.88091985 L15.3125,2.9375 C15.3125,2.14486893 14.6676311,1.5 13.875,1.5 Z M5,1.25 C3.96583333,1.25 3.125,2.09083333 3.125,3.125 L3.127,3.193 L3.13049383,3.10090753 C3.20540006,2.08812743 4.03712001,1.28329319 5.06105162,1.25100689 C5.04146288,1.25033917 5.02077044,1.25 5,1.25 Z" id="Combined-Shape"></path>
                    </g>
                </g>
            </g>
        </g>
    </g>
</svg>
