<svg id="Menu_icon_01" data-name="Menu icon/01" xmlns="http://www.w3.org/2000/svg" width="20" height="20" viewBox="0 0 20 20">
  <g id="multiple-circle">
    <path id="Combined_Shape" data-name="Combined Shape" d="M3.849,19.551C1.259,19.123,0,18.453,0,17.5a.625.625,0,0,1,1.247-.051c.339.4,3.229,1.3,8.752,1.3s8.413-.9,8.752-1.3A.625.625,0,0,1,20,17.5c0,.953-1.259,1.624-3.849,2.051A41.74,41.74,0,0,1,10,20,41.747,41.747,0,0,1,3.849,19.551ZM8.75,17.5a.626.626,0,0,1-.62-.547L7.573,12.5h-.7a.626.626,0,0,1-.625-.625V10a3.75,3.75,0,1,1,7.5,0v1.875a.625.625,0,0,1-.625.625h-.7l-.557,4.453a.624.624,0,0,1-.619.547ZM7.5,10v1.25h.625a.626.626,0,0,1,.62.547L9.3,16.25h1.4l.556-4.452a.628.628,0,0,1,.62-.547H12.5V10a2.5,2.5,0,1,0-5,0ZM15,16.25a.625.625,0,0,1-.617-.523l-.313-1.88a.626.626,0,0,1,.514-.719.657.657,0,0,1,.1-.008.624.624,0,0,1,.616.522L15.53,15H16.97l.538-3.227a.621.621,0,0,1,.617-.523h.625a2.5,2.5,0,0,0-3.3-2.368.632.632,0,0,1-.2.032.625.625,0,0,1-.2-1.218,3.764,3.764,0,0,1,1.128-.2,2.5,2.5,0,1,1,.144,0A3.756,3.756,0,0,1,20,11.249v.625a.625.625,0,0,1-.625.625h-.721l-.538,3.227a.624.624,0,0,1-.616.523ZM15,5a1.25,1.25,0,1,0,1.25-1.25A1.251,1.251,0,0,0,15,5ZM2.5,16.25a.623.623,0,0,1-.617-.522L1.345,12.5H.625A.625.625,0,0,1,0,11.875V11.25A3.758,3.758,0,0,1,3.678,7.5a2.5,2.5,0,1,1,.144,0,3.749,3.749,0,0,1,1.127.2.625.625,0,0,1-.4,1.185,2.5,2.5,0,0,0-3.3,2.368h.625a.625.625,0,0,1,.617.522L3.029,15H4.47L4.7,13.642a.622.622,0,0,1,.617-.522.674.674,0,0,1,.1.008.628.628,0,0,1,.407.254.62.62,0,0,1,.107.465l-.312,1.88A.625.625,0,0,1,5,16.25ZM2.5,5A1.25,1.25,0,1,0,3.75,3.75,1.251,1.251,0,0,0,2.5,5ZM6.875,3.125A3.125,3.125,0,1,1,10,6.25,3.128,3.128,0,0,1,6.875,3.125Zm1.25,0A1.875,1.875,0,1,0,10,1.25,1.877,1.877,0,0,0,8.125,3.125Z" fill="#9D9D9D"/>
  </g>
</svg>
