<svg xmlns="http://www.w3.org/2000/svg" width="20" height="20" viewBox="0 0 20 20">
  <path id="Combined_Shape" data-name="Combined Shape" d="M0,10A10,10,0,1,1,10,20,10.011,10.011,0,0,1,0,10Zm1.25,0A8.75,8.75,0,1,0,10,1.25,8.759,8.759,0,0,0,1.25,10Zm7.812,4.687a.938.938,0,1,1,.938.938A.938.938,0,0,1,9.062,14.687Zm.313-2.812v-.838a1.876,1.876,0,0,1,1.25-1.769A1.875,1.875,0,1,0,8.674,6.175,1.858,1.858,0,0,0,8.125,7.5a.625.625,0,1,1-1.25,0,3.125,3.125,0,1,1,4.167,2.947.628.628,0,0,0-.417.589v.839a.625.625,0,1,1-1.25,0Z" fill="#7f7f7f"/>
</svg>
