<svg xmlns="http://www.w3.org/2000/svg" width="20.001" height="20" viewBox="0 0 20.001 20">
  <path id="Combined_Shape" data-name="Combined Shape" d="M18.933,19.817,13.5,14.379a8.175,8.175,0,1,1,.885-.884l5.436,5.438a.625.625,0,0,1-.884.884ZM1.25,8.177A6.926,6.926,0,1,0,8.177,1.25,6.934,6.934,0,0,0,1.25,8.177ZM7.5,11.25v-.294a2.48,2.48,0,0,1-1.42-.915.625.625,0,1,1,.994-.757,1.236,1.236,0,0,0,.98.484H8.1c.645,0,1.119-.352,1.119-.665s-.469-.664-1.094-.664A2.165,2.165,0,0,1,5.781,6.522,2.005,2.005,0,0,1,7.5,4.678v-.3a.626.626,0,0,1,1.251,0v.3a2.484,2.484,0,0,1,1.421.914.625.625,0,0,1-.995.756A1.241,1.241,0,0,0,8.2,5.856l-.046,0c-.644,0-1.118.351-1.118.664s.467.665,1.094.665A2.164,2.164,0,0,1,10.469,9.1,2.005,2.005,0,0,1,8.75,10.946v.3a.625.625,0,0,1-1.25,0Z" fill="#0dc188"/>
</svg>
