<svg xmlns="http://www.w3.org/2000/svg" width="20" height="20" viewBox="0 0 20 20">
  <path id="Shape" d="M12.726,17.533l-1.919,1.915a1.875,1.875,0,0,1-2.651,0L6.4,17.691a.624.624,0,0,1,.2-1.017A2.5,2.5,0,1,0,3.326,13.4a.622.622,0,0,1-.455.371.583.583,0,0,1-.121.013.629.629,0,0,1-.441-.183L.549,11.846a1.877,1.877,0,0,1,0-2.651L2.467,7.274A3.75,3.75,0,1,1,7.274,2.468L9.193.549a1.877,1.877,0,0,1,2.651,0L13.6,2.309a.624.624,0,0,1-.2,1.017A2.5,2.5,0,1,0,16.675,6.6a.626.626,0,0,1,.455-.371.624.624,0,0,1,.562.171l1.759,1.755a1.877,1.877,0,0,1,0,2.651l-1.918,1.919a3.75,3.75,0,1,1-4.807,4.808Z" fill="#9D9D9D"/>
</svg>
