<svg id="Menu_icon_01" data-name="Menu icon/01" xmlns="http://www.w3.org/2000/svg" width="20" height="20" viewBox="0 0 20 20">
  <g id="human-resources-hierarchy">
    <path id="Combined_Shape" data-name="Combined Shape" d="M13.75,17.5a2.5,2.5,0,0,1,1.875-2.418V12.5H10v2.581a2.5,2.5,0,1,1-1.25,0V12.5H3.125v2.581a2.5,2.5,0,1,1-1.25,0V12.272A1.024,1.024,0,0,1,2.9,11.25H8.75V9.374a.625.625,0,0,1,1.25,0V11.25h5.853a1.024,1.024,0,0,1,1.022,1.022v2.809A2.5,2.5,0,1,1,13.75,17.5Zm1.25,0a1.25,1.25,0,1,0,1.25-1.25A1.251,1.251,0,0,0,15,17.5Zm-6.875,0a1.25,1.25,0,1,0,1.25-1.25A1.251,1.251,0,0,0,8.125,17.5Zm-6.875,0A1.25,1.25,0,1,0,2.5,16.25,1.251,1.251,0,0,0,1.25,17.5ZM12.52,9.527A3.494,3.494,0,0,0,9.311,6.876,3.5,3.5,0,0,0,6.1,9.527.621.621,0,0,1,5.5,10a.638.638,0,0,1-.154-.019.625.625,0,0,1-.453-.759A4.731,4.731,0,0,1,7.92,5.89a3.125,3.125,0,1,1,2.858.026,4.735,4.735,0,0,1,2.954,3.306.625.625,0,0,1-1.212.305ZM7.5,3.125A1.875,1.875,0,1,0,9.374,1.25,1.878,1.878,0,0,0,7.5,3.125Z" transform="translate(0.624)" fill="#0dc188"/>
  </g>
</svg>
