<svg xmlns="http://www.w3.org/2000/svg" width="20.001" height="20" viewBox="0 0 20.001 20">
  <g id="Menu_icon_01" data-name="Menu icon/01" transform="translate(0.001)">
    <g id="multiple-actions-setting">
      <path id="Combined_Shape" data-name="Combined Shape" d="M3.125,20a.623.623,0,0,1-.622-.562L1.934,13.75H.625A.625.625,0,0,1,0,13.125V11.25a5,5,0,0,1,4.949-5h.059A4.966,4.966,0,0,1,8.5,7.679a.626.626,0,0,1,.01.885.629.629,0,0,1-.448.186.621.621,0,0,1-.437-.178A3.745,3.745,0,0,0,4.989,7.5H4.96A3.75,3.75,0,0,0,1.25,11.25V12.5H2.5a.623.623,0,0,1,.622.563l.569,5.687H6.309l.379-3.784a.621.621,0,0,1,.617-.563c.024,0,.047,0,.071,0a.627.627,0,0,1,.554.685L7.5,19.437A.621.621,0,0,1,6.875,20Zm10.751-.075a1.729,1.729,0,0,1-1.161-1.161l-.368-1.209a.2.2,0,0,0-.193-.146.187.187,0,0,0-.045.005l-1.228.283a1.708,1.708,0,0,1-.39.044A1.74,1.74,0,0,1,9.22,14.816l.857-.924a.211.211,0,0,0,0-.285l-.859-.926A1.741,1.741,0,0,1,10.877,9.8l1.232.285a.162.162,0,0,0,.043.005.2.2,0,0,0,.194-.144l.369-1.212a1.737,1.737,0,0,1,2.163-1.157,1.731,1.731,0,0,1,1.158,1.162l.368,1.21a.206.206,0,0,0,.2.145.179.179,0,0,0,.044-.005L17.87,9.8a1.741,1.741,0,0,1,1.66,2.884l-.858.925a.211.211,0,0,0,0,.285l.86.926a1.74,1.74,0,0,1-1.273,2.926,1.739,1.739,0,0,1-.386-.043l-1.229-.285a.244.244,0,0,0-.044,0,.2.2,0,0,0-.194.143l-.369,1.209A1.745,1.745,0,0,1,14.374,20,1.769,1.769,0,0,1,13.875,19.925Zm-.332-2.732L13.91,18.4a.487.487,0,0,0,.325.326.448.448,0,0,0,.14.021.489.489,0,0,0,.464-.345l.369-1.209a1.46,1.46,0,0,1,1.39-1.031,1.416,1.416,0,0,1,.327.038l1.227.283a.454.454,0,0,0,.107.012.487.487,0,0,0,.333-.131.481.481,0,0,0,.156-.342.489.489,0,0,0-.131-.351l-.859-.928a1.464,1.464,0,0,1,0-1.985l.858-.925a.5.5,0,0,0,.121-.444.489.489,0,0,0-.477-.382.5.5,0,0,0-.109.013l-1.224.284a1.373,1.373,0,0,1-.325.037,1.463,1.463,0,0,1-1.391-1.033c0-.012-.367-1.207-.369-1.214a.486.486,0,0,0-.323-.323.467.467,0,0,0-.139-.021.487.487,0,0,0-.464.344l-.368,1.212a1.463,1.463,0,0,1-1.391,1.031,1.428,1.428,0,0,1-.325-.037L10.6,11.015A.5.5,0,0,0,10.5,11a.491.491,0,0,0-.491.472.49.49,0,0,0,.132.352l.859.927a1.462,1.462,0,0,1,0,1.985l-.857.925a.489.489,0,0,0,.356.826.471.471,0,0,0,.109-.013L11.83,16.2a1.421,1.421,0,0,1,.322-.037A1.463,1.463,0,0,1,13.543,17.193ZM12.5,13.749a1.875,1.875,0,1,1,1.875,1.876A1.877,1.877,0,0,1,12.5,13.749Zm1.25,0a.625.625,0,1,0,.625-.625A.625.625,0,0,0,13.75,13.749Zm2.709-5.936A3.125,3.125,0,0,0,11.4,7.319a.625.625,0,1,1-.942-.822,4.361,4.361,0,0,1,1.106-.91,4.422,4.422,0,0,1,.765-.349,2.813,2.813,0,1,1,2.844,0,4.34,4.34,0,0,1,2.368,1.95.626.626,0,0,1-.229.854.625.625,0,0,1-.853-.229Zm-4.271-5A1.562,1.562,0,1,0,13.75,1.25,1.564,1.564,0,0,0,12.188,2.813ZM1.875,3.125A3.125,3.125,0,1,1,5,6.25,3.129,3.129,0,0,1,1.875,3.125Zm1.25,0A1.875,1.875,0,1,0,5,1.25,1.878,1.878,0,0,0,3.125,3.125Z" transform="translate(-0.001)" fill="#0dc188"/>
    </g>
  </g>
</svg>
