<svg xmlns="http://www.w3.org/2000/svg" width="17.778" height="14.815" viewBox="0 0 17.778 14.815">
  <path id="Shape" d="M15.556,14.815H2.222A2.225,2.225,0,0,1,0,12.593V2.222A2.225,2.225,0,0,1,2.222,0h2.35A2.213,2.213,0,0,1,6.143.65l.831.832h8.582A2.225,2.225,0,0,1,17.778,3.7v8.889A2.225,2.225,0,0,1,15.556,14.815ZM2.222,1.481a.742.742,0,0,0-.741.741V12.593a.742.742,0,0,0,.741.741H15.556a.742.742,0,0,0,.741-.741V3.7a.742.742,0,0,0-.741-.741H6.666a.736.736,0,0,1-.524-.217L5.095,1.7a.733.733,0,0,0-.522-.216Z" transform="translate(0 0)" fill="#9d9d9d"/>
</svg>
