<svg xmlns="http://www.w3.org/2000/svg" width="19.2" height="19.2" viewBox="0 0 19.2 19.2">
  <path id="Combined_Shape" data-name="Combined Shape" d="M1.8,19.2A1.8,1.8,0,0,1,0,17.4V1.8A1.8,1.8,0,0,1,1.8,0H17.4a1.8,1.8,0,0,1,1.8,1.8V17.4a1.8,1.8,0,0,1-1.8,1.8ZM1.2,1.8V17.4a.6.6,0,0,0,.6.6H17.4a.6.6,0,0,0,.6-.6V1.8a.6.6,0,0,0-.6-.6H1.8A.6.6,0,0,0,1.2,1.8ZM6.176,16.024a.6.6,0,0,1,0-.849L9.352,12a1.2,1.2,0,0,1,1.7,0L12.6,13.55l3.175-3.175a.6.6,0,1,1,.848.849L13.449,14.4a1.2,1.2,0,0,1-1.7,0L10.2,12.848,7.024,16.024a.6.6,0,0,1-.848,0ZM2.4,6.6A4.2,4.2,0,1,1,9.595,9.542a.19.19,0,0,1-.025.028.24.24,0,0,1-.029.025A4.2,4.2,0,0,1,2.4,6.6Zm1.2,0A3,3,0,0,0,8.253,9.1L6.177,7.025A.592.592,0,0,1,6,6.6V3.663A3.011,3.011,0,0,0,3.6,6.6Zm3.6-.248,1.9,1.9a2.995,2.995,0,0,0-1.9-4.59Zm6,.848a.6.6,0,1,1,0-1.2h2.4a.6.6,0,1,1,0,1.2Zm0-2.4a.6.6,0,1,1,0-1.2h2.4a.6.6,0,1,1,0,1.2Z" fill="#0dc188"/>
</svg>
