<svg xmlns="http://www.w3.org/2000/svg" width="20" height="20.001" viewBox="0 0 20 20.001">
  <g id="Menu_icon_01" data-name="Menu icon/01" transform="translate(0 0.001)">
    <g id="human-resources-rating-man">
      <path id="Combined_Shape" data-name="Combined Shape" d="M5.4,19.842a.624.624,0,0,1-.059-.881,6.283,6.283,0,0,1,.589-.59,6.2,6.2,0,0,1,8.735.59.625.625,0,0,1-.941.823,4.948,4.948,0,0,0-6.972-.472,4.832,4.832,0,0,0-.47.471.622.622,0,0,1-.47.215A.629.629,0,0,1,5.4,19.842Zm.541-7.061a4.062,4.062,0,0,1,.533-2,.475.475,0,0,1,.038-.065,4.055,4.055,0,0,1,7.5,1.446.633.633,0,0,1,.022.139,4.061,4.061,0,1,1-8.094.483Zm1.25,0a2.813,2.813,0,0,0,5.6.409,6.322,6.322,0,0,1-1.62.212,6.406,6.406,0,0,1-3.887-1.319A2.8,2.8,0,0,0,7.187,12.781Zm.68-1.83a5.109,5.109,0,0,0,3.294,1.2,5.052,5.052,0,0,0,1.514-.23,2.808,2.808,0,0,0-4.808-.966Zm9.35-1.48-1.579-.824-.618.324a.635.635,0,0,1-.29.07.624.624,0,0,1-.29-1.178l.719-.376a1.035,1.035,0,0,1,.956,0l1.282.669-.245-1.421a1.016,1.016,0,0,1,.3-.9l1.033-1-1.428-.207a1.026,1.026,0,0,1-.772-.556L15.493,2.48a.625.625,0,0,1,.143-1.234,1.022,1.022,0,0,1,.922.568l.79,1.588,1.771.256a1.02,1.02,0,0,1,.57,1.742L18.407,6.643l.3,1.751A1.026,1.026,0,0,1,17.7,9.59,1.052,1.052,0,0,1,17.217,9.472ZM1.706,9.4a1.022,1.022,0,0,1-.417-1l.3-1.753L.31,5.4A1.021,1.021,0,0,1,.881,3.659L2.65,3.4l.789-1.588a1.023,1.023,0,0,1,.92-.571.626.626,0,0,1,.147,1.235L3.717,4.066a1.027,1.027,0,0,1-.776.559l-1.425.206,1.032,1a1.016,1.016,0,0,1,.3.9L2.6,8.157l1.283-.669a1.04,1.04,0,0,1,.955,0l.719.375a.625.625,0,0,1-.289,1.179.637.637,0,0,1-.29-.07l-.619-.323-1.579.823A1.027,1.027,0,0,1,1.706,9.4Zm9.875-1.17L10,7.4,8.42,8.23a1.026,1.026,0,0,1-1.49-1.074l.3-1.754L5.949,4.157A1.02,1.02,0,0,1,6.52,2.415L8.289,2.16,9.077.571a1.028,1.028,0,0,1,.6-.518,1.028,1.028,0,0,1,.786.058,1.013,1.013,0,0,1,.457.457l.79,1.592,1.77.256a1.02,1.02,0,0,1,.567,1.745L12.77,5.4l.3,1.751a1.025,1.025,0,0,1-.417,1,1.009,1.009,0,0,1-.6.191A1.04,1.04,0,0,1,11.581,8.23Zm-1.1-1.984,1.283.669-.246-1.421a1.023,1.023,0,0,1,.3-.905l1.03-1L11.415,3.38a1.029,1.029,0,0,1-.773-.559L10,1.525,9.356,2.819a1.03,1.03,0,0,1-.773.56l-1.428.207,1.034,1a1.017,1.017,0,0,1,.3.9L8.239,6.914l1.283-.671A1.015,1.015,0,0,1,10,6.125,1.031,1.031,0,0,1,10.481,6.245Z" transform="translate(0 -0.001)" fill="#0dc188"/>
    </g>
  </g>
</svg>
