<svg xmlns="http://www.w3.org/2000/svg" width="18.753" height="18.755" viewBox="0 0 18.753 18.755">
  <path id="Combined_Shape" data-name="Combined Shape" d="M17.688,18.572,13.418,14.3a8.2,8.2,0,1,1,.881-.886l4.271,4.27a.625.625,0,0,1,0,.883.624.624,0,0,1-.441.184A.617.617,0,0,1,17.688,18.572ZM5.441,1.8a6.875,6.875,0,1,0,7.526,11.217.151.151,0,0,1,.024-.027.275.275,0,0,1,.034-.029,6.883,6.883,0,0,0-4.9-11.713A6.827,6.827,0,0,0,5.441,1.8ZM7.5,13.13V10.07a2.919,2.919,0,0,0-.4.107A3.085,3.085,0,0,0,5.2,12.086a.626.626,0,0,1-.589.418A.64.64,0,0,1,4.4,12.47a.626.626,0,0,1-.383-.8A4.337,4.337,0,0,1,8.094,8.758l.036,0,.041,0a4.343,4.343,0,0,1,4.068,2.917.621.621,0,0,1-.384.8.612.612,0,0,1-.206.035.625.625,0,0,1-.59-.418,3.083,3.083,0,0,0-1.58-1.774,3.052,3.052,0,0,0-.724-.243v3.061a.625.625,0,0,1-1.25,0ZM5,5.629A3.125,3.125,0,1,1,8.129,8.754,3.129,3.129,0,0,1,5,5.629Zm1.25,0A1.875,1.875,0,1,0,8.129,3.755,1.878,1.878,0,0,0,6.254,5.629Z" transform="translate(0)" fill="#0dc188"/>
</svg>
