<svg xmlns="http://www.w3.org/2000/svg" width="20" height="18.75" viewBox="0 0 20 18.75">
  <path id="Combined_Shape" data-name="Combined Shape" d="M1.875,18.75A1.876,1.876,0,0,1,0,16.875V5.625A1.876,1.876,0,0,1,1.875,3.75H2.5V3.125a.625.625,0,0,1,1.25,0V3.75H5.8l.822-2.469A1.874,1.874,0,0,1,8.4,0h3.2a1.874,1.874,0,0,1,1.779,1.282L14.2,3.75h2.05V3.125a.625.625,0,0,1,1.249,0V3.75h.625A1.876,1.876,0,0,1,20,5.625v11.25a1.876,1.876,0,0,1-1.875,1.875ZM1.25,5.625v11.25a.625.625,0,0,0,.625.625h16.25a.625.625,0,0,0,.625-.625V5.625A.625.625,0,0,0,18.125,5H1.875A.625.625,0,0,0,1.25,5.625ZM7.808,1.678,7.117,3.75h5.765l-.691-2.074A.622.622,0,0,0,11.6,1.25H8.4A.622.622,0,0,0,7.808,1.678Zm-3.433,12.7a.625.625,0,0,1,0-1.25h11.25a.625.625,0,1,1,0,1.25Zm0-5a.625.625,0,0,1,0-1.25h11.25a.625.625,0,1,1,0,1.25Z" fill="#7f7f7f"/>
</svg>
