<svg xmlns="http://www.w3.org/2000/svg" width="20" height="20" viewBox="0 0 20 20">
  <path id="Combined_Shape" data-name="Combined Shape" d="M9.851,19.98l-.038-.009-.038-.014a.413.413,0,0,1-.054-.024.514.514,0,0,1-.048-.025l-.03-.02-.028-.022-.037-.031c-.017-.016-.031-.03-.043-.044s-.023-.027-.034-.041-.026-.039-.034-.051-.022-.038-.031-.055a.415.415,0,0,1-.018-.044c-.005-.011-.009-.022-.013-.034-.327-1.03-2.912-2.574-7.635-2.786A1.88,1.88,0,0,1,0,14.893V3.772A1.876,1.876,0,0,1,1.87,1.894H1.9c.037,0,.073,0,.109,0a14.121,14.121,0,0,1,7.11,1.949A.625.625,0,1,1,8.4,4.873,13.126,13.126,0,0,0,1.931,3.146l-.059,0a.625.625,0,0,0-.622.626V14.9a.627.627,0,0,0,.586.633c3.234.146,5.977.922,7.539,2.11V8.75a.625.625,0,0,1,1.25,0v8.891c1.563-1.189,4.308-1.966,7.549-2.111a.622.622,0,0,0,.575-.628V7.5A.625.625,0,0,1,20,7.5v7.4a1.874,1.874,0,0,1-1.759,1.88c-4.733.213-7.319,1.758-7.646,2.786a.372.372,0,0,1-.014.037c0,.007-.01.023-.017.039a.5.5,0,0,1-.026.049.394.394,0,0,1-.033.051.448.448,0,0,1-.035.044l-.048.049c-.012.011-.027.023-.043.036l-.031.022h0l-.02.013a.475.475,0,0,1-.055.03.37.37,0,0,1-.05.022l-.038.015-.037.009A.606.606,0,0,1,10,20,.583.583,0,0,1,9.851,19.98ZM7.575,14.448A20.487,20.487,0,0,0,3.028,13.4.625.625,0,0,1,3.1,12.151a.476.476,0,0,1,.072,0,21.683,21.683,0,0,1,4.826,1.115.625.625,0,1,1-.418,1.177Zm6.175-2.572V11.25h-.625a.626.626,0,0,1-.625-.625V9.364a3.125,3.125,0,1,1,3.75,0v1.261a.626.626,0,0,1-.625.625H15v.625a.625.625,0,0,1-1.25,0Zm.614-6.888h0a1.875,1.875,0,0,0-.923,3.5.625.625,0,0,1,.312.541V10H15v-.97a.629.629,0,0,1,.314-.543,1.875,1.875,0,0,0-.931-3.5l-.02-.312ZM7.575,11.077a20.306,20.306,0,0,0-4.506-1.05.625.625,0,1,1,.144-1.242A21.44,21.44,0,0,1,8,9.9a.625.625,0,0,1-.211,1.213A.616.616,0,0,1,7.575,11.077Zm0-3.18a19.819,19.819,0,0,0-4.5-1.05A.625.625,0,0,1,3.141,5.6a.437.437,0,0,1,.068,0A21.007,21.007,0,0,1,8,6.722a.625.625,0,0,1-.212,1.213A.615.615,0,0,1,7.573,7.9ZM17.059,4.01a.624.624,0,0,1,0-.884l.884-.884a.625.625,0,0,1,.884.883l-.885.885a.625.625,0,0,1-.883,0Zm-6.25,0-.884-.885a.624.624,0,1,1,.883-.883l.885.884a.625.625,0,0,1-.884.884ZM13.75,1.875V.625a.625.625,0,0,1,1.25,0v1.25a.625.625,0,1,1-1.25,0Z" transform="translate(0)" fill="#0dc188"/>
</svg>
